# xmcd
#
# Track frame offsets: 
#        150
#        17892
#        36216
#        62678
#        77176
#        101865
#        116933
#        135592
#        163165
#        180536
#        200256
#        213091
#        230002
#        253844
#        279377
#
# Disc length: 3942 seconds
#
# Revision: 0
# Processed by: cddbd v1.5.2PL0 Copyright (c) Steve Scherf et al.
# Submitted via: ExactAudioCopy v0.99pb5
#
DISCID=da0f640f
DTITLE=Eric Clapton - Clapton
DYEAR=2010
DGENRE=Blues
TTITLE0=Traveli' Alone
TTITLE1=Rocking Chair
TTITLE2=River Runs Deep
TTITLE3=Judgement Day
TTITLE4=How Deep Is The Ocean
TTITLE5=My Very Good Friend The Milkman
TTITLE6=Can't Hold Out Much Longer
TTITLE7=That's No Way To Get Along
TTITLE8=Everything Will Be Alright
TTITLE9=Diamonds Make From Rain
TTITLE10=When Sombody Thinks You're Wonderfull
TTITLE11=Hard Times Blues
TTITLE12=Run Back To Your Side
TTITLE13=Autumn Leaves
TTITLE14=You Better Watch Yourself
EXTD=
EXTT0=
EXTT1=
EXTT2=
EXTT3=
EXTT4=
EXTT5=
EXTT6=
EXTT7=
EXTT8=
EXTT9=
EXTT10=
EXTT11=
EXTT12=
EXTT13=
EXTT14=
PLAYORDER=
